<svg width="28" height="29" viewBox="0 0 28 29" fill="none"
     xmlns="http://www.w3.org/2000/svg">
  <path fill-rule="evenodd" clip-rule="evenodd"
        d="M3.5 19.7699V10.8881H24.5V19.8411C24.5 23.5032 22.1948 25.7549 18.5066 25.7549H9.48189C5.82821 25.7549 3.5 23.4566 3.5 19.7699ZM9.28595 16.8999C8.75576 16.9244 8.31778 16.5032 8.29473 15.9677C8.29473 15.4311 8.70966 14.9877 9.23985 14.9632C9.75851 14.9632 10.185 15.3727 10.1965 15.8966C10.2195 16.4344 9.80461 16.8777 9.28595 16.8999ZM14.0231 16.8999C13.4929 16.9244 13.0549 16.5032 13.0318 15.9677C13.0318 15.4311 13.4468 14.9877 13.9769 14.9632C14.4956 14.9632 14.9221 15.3727 14.9336 15.8966C14.9566 16.4344 14.5417 16.8777 14.0231 16.8999ZM18.7256 21.1932C18.1954 21.1816 17.7689 20.7382 17.7689 20.2016C17.7574 19.6649 18.1839 19.2227 18.714 19.2111H18.7256C19.2673 19.2111 19.7053 19.6544 19.7053 20.2016C19.7053 20.7499 19.2673 21.1932 18.7256 21.1932ZM13.0318 20.2016C13.0549 20.7382 13.4929 21.1594 14.0231 21.1349C14.5417 21.1127 14.9566 20.6694 14.9336 20.1327C14.9221 19.6077 14.4956 19.1982 13.9769 19.1982C13.4468 19.2227 13.0318 19.6649 13.0318 20.2016ZM8.28321 20.2016C8.30626 20.7382 8.74424 21.1594 9.27442 21.1349C9.79308 21.1127 10.208 20.6694 10.185 20.1327C10.1734 19.6077 9.74698 19.1982 9.22832 19.1982C8.69813 19.2227 8.28321 19.6649 8.28321 20.2016ZM17.7805 15.9561C17.7805 15.4194 18.1954 14.9877 18.7256 14.9761C19.2442 14.9761 19.6592 15.3949 19.6822 15.9094C19.6937 16.4461 19.2788 16.8894 18.7602 16.8999C18.23 16.9116 17.792 16.5032 17.7805 15.9677V15.9561Z"
        fill="#B9A8FF" />
  <path opacity="0.4"
        d="M3.50391 10.888C3.51889 10.2031 3.57652 8.84396 3.68486 8.40646C4.2381 5.94596 6.1168 4.38262 8.80232 4.15979H19.1986C21.861 4.39429 23.7628 5.96812 24.316 8.40646C24.4232 8.83229 24.4809 10.202 24.4958 10.888H3.50391Z"
        fill="#B9A8FF" />
  <path
    d="M9.689 7.77657C10.1961 7.77657 10.5765 7.39274 10.5765 6.87824V3.32107C10.5765 2.80657 10.1961 2.42157 9.689 2.42157C9.18187 2.42157 8.80151 2.80657 8.80151 3.32107V6.87824C8.80151 7.39274 9.18187 7.77657 9.689 7.77657Z"
    fill="#B9A8FF" />
  <path
    d="M18.3108 7.77657C18.8064 7.77657 19.1983 7.39274 19.1983 6.87824V3.32107C19.1983 2.80657 18.8064 2.42157 18.3108 2.42157C17.8036 2.42157 17.4233 2.80657 17.4233 3.32107V6.87824C17.4233 7.39274 17.8036 7.77657 18.3108 7.77657Z"
    fill="#B9A8FF" />
</svg>
