<svg width="28" height="28" viewBox="0 0 28 28" fill="none"
     xmlns="http://www.w3.org/2000/svg">
  <path opacity="0.3" fill-rule="evenodd" clip-rule="evenodd"
        d="M7.00001 2.33331H21C21.6443 2.33331 22.1667 2.85565 22.1667 3.49998V15.1666C22.1667 15.811 21.6443 16.3333 21 16.3333H7.00001C6.35568 16.3333 5.83334 15.811 5.83334 15.1666V3.49998C5.83334 2.85565 6.35568 2.33331 7.00001 2.33331ZM16.1 4.66665C15.3489 4.66665 14.4705 5.51814 14 6.06665C13.5295 5.51814 12.6511 4.66665 11.9 4.66665C10.5705 4.66665 9.80001 5.70366 9.80001 7.0235C9.80001 8.4856 11.2 10.0333 14 11.6666C16.8 10.0333 18.2 8.51665 18.2 7.11665C18.2 5.79681 17.4295 4.66665 16.1 4.66665Z"
        fill="#B9A8FF" />
  <path fill-rule="evenodd" clip-rule="evenodd"
        d="M4.42487 7.66798L14 14.5833L23.5751 7.66798C23.8363 7.47935 24.2009 7.53816 24.3896 7.79933C24.4614 7.89874 24.5 8.01825 24.5 8.14087V19.8333C24.5 21.122 23.4553 22.1667 22.1667 22.1667H5.83333C4.54467 22.1667 3.5 21.122 3.5 19.8333V8.14087C3.5 7.81871 3.76117 7.55754 4.08333 7.55754C4.20596 7.55754 4.32546 7.59618 4.42487 7.66798Z"
        fill="#B9A8FF" />
</svg>
