<svg width="20" height="21" viewBox="0 0 20 21" fill="none"
     xmlns="http://www.w3.org/2000/svg">
  <path fill-rule="evenodd" clip-rule="evenodd"
        d="M15.8333 11H17.5833C18.5498 11 19.3333 11.7835 19.3333 12.75C19.3333 13.7165 18.5498 14.5 17.5833 14.5H2.41666C1.45016 14.5 0.666656 13.7165 0.666656 12.75C0.666656 11.7835 1.45016 11 2.41666 11H4.16666L4.81798 5.13812C5.11136 2.49763 7.34325 0.5 9.99999 0.5C12.6567 0.5 14.8886 2.49763 15.182 5.13812L15.8333 11Z"
        fill="#B9A8FF" />
  <path opacity="0.3"
        d="M12.3333 18C12.3333 16.7114 11.2887 15.6667 9.99999 15.6667C8.71133 15.6667 7.66666 16.7114 7.66666 18C7.66666 19.2887 8.71133 20.3334 9.99999 20.3334C11.2887 20.3334 12.3333 19.2887 12.3333 18Z"
        fill="#B9A8FF" />
</svg>
